    <svg xmlns="http://www.w3.org/2000/svg" width="20px" height="20px" className="mr-4 inline-block"
                    viewBox="0 0 1700 1700">
                    <path
                      d="M916.7 1269.4c-10.7 0-20.4-7.2-23.2-18l-29.9-114.7c-3.3-12.8 4.3-25.9 17.2-29.3 12.8-3.3 25.9 4.3 29.3 17.2l29.9 114.7c3.3 12.8-4.3 25.9-17.2 29.3-2 .5-4.1.8-6.1.8zm-169.4 0c-2 0-4-.3-6.1-.8-12.8-3.3-20.5-16.4-17.2-29.3l29.9-114.7c3.3-12.8 16.4-20.5 29.3-17.2 12.8 3.3 20.5 16.4 17.2 29.3l-29.9 114.7c-2.8 10.8-12.6 18-23.2 18z"
                      data-original="#000000" />
                    <path
                      d="M1066.6 1358.8H597.4c-13.3 0-24-10.7-24-24 0-62.6 50.9-113.5 113.5-113.5h290.4c62.6 0 113.5 50.9 113.5 113.5-.2 13.3-10.9 24-24.2 24zm-440.7-48H1038c-9.6-24.3-33.3-41.5-60.9-41.5H686.8c-27.6.1-51.3 17.3-60.9 41.5zM276.4 762.7c-13.3 0-24-10.7-24-24V395c0-29.7 24.2-53.9 53.9-53.9h1051.4c29.7 0 53.9 24.2 53.9 53.9v297.8c0 13.3-10.7 24-24 24s-24-10.7-24-24V395c0-3.2-2.6-5.9-5.9-5.9H306.3c-3.2 0-5.9 2.6-5.9 5.9v343.7c0 13.2-10.7 24-24 24zm904.5 392H446.5c-13.3 0-24-10.7-24-24s10.7-24 24-24h734.3c13.3 0 24 10.7 24 24s-10.6 24-23.9 24zm0-120.8H446.5c-13.3 0-24-10.7-24-24s10.7-24 24-24h734.3c13.3 0 24 10.7 24 24s-10.6 24-23.9 24z"
                      data-original="#000000" />
                    <path
                      d="M424.1 1358.8H128.4c-25.6 0-46.4-20.8-46.4-46.4V761.1c0-25.6 20.8-46.4 46.4-46.4h295.7c25.6 0 46.4 20.8 46.4 46.4v551.3c0 25.6-20.8 46.4-46.4 46.4zm-294.1-48h292.5V762.7H130z"
                      data-original="#000000" />
                    <path
                      d="M446.5 853.6H106c-13.3 0-24-10.7-24-24s10.7-24 24-24h340.5c13.3 0 24 10.7 24 24s-10.7 24-24 24zm0 414.4H106c-13.3 0-24-10.7-24-24s10.7-24 24-24h340.5c13.3 0 24 10.7 24 24s-10.7 24-24 24zm1125.1 90.8h-368.3c-25.6 0-46.4-20.8-46.4-46.4V715.2c0-25.6 20.8-46.4 46.4-46.4h368.3c25.6 0 46.4 20.8 46.4 46.4v597.2c0 25.6-20.8 46.4-46.4 46.4zm-366.7-48H1570v-594h-365.1z"
                      data-original="#000000" />
                    <path
                      d="M1594 811.8h-413.1c-13.3 0-24-10.7-24-24s10.7-24 24-24H1594c13.3 0 24 10.7 24 24s-10.7 24-24 24zm0 452h-413.1c-13.3 0-24-10.7-24-24s10.7-24 24-24H1594c13.3 0 24 10.7 24 24s-10.7 24-24 24z"
                      data-original="#000000" />
                  </svg>